<svg id="visual" viewBox="0 0 880 200" width="880" height="200" xmlns="http://www.w3.org/2000/svg" xmlns:xlink="http://www.w3.org/1999/xlink" version="1.1"><g stroke-width="1" stroke-linejoin="bevel"><path d="M452 94L497 66L446 60Z" fill="#7d65d6" stroke="#7d65d6"></path><path d="M452 94L489 100L497 66Z" fill="#7d65d6" stroke="#7d65d6"></path><path d="M403 107L456 145L452 94Z" fill="#937de4" stroke="#937de4"></path><path d="M452 94L456 145L489 100Z" fill="#937de4" stroke="#937de4"></path><path d="M446 60L403 107L452 94Z" fill="#8871dd" stroke="#8871dd"></path><path d="M497 66L490 0L446 60Z" fill="#a895f0" stroke="#a895f0"></path><path d="M446 60L370 42L403 107Z" fill="#5137bb" stroke="#5137bb"></path><path d="M490 0L442 0L446 60Z" fill="#735ad0" stroke="#735ad0"></path><path d="M494 168L537 118L489 100Z" fill="#5137bb" stroke="#5137bb"></path><path d="M489 100L537 118L497 66Z" fill="#735ad0" stroke="#735ad0"></path><path d="M497 66L551 0L490 0Z" fill="#a895f0" stroke="#a895f0"></path><path d="M456 145L494 168L489 100Z" fill="#937de4" stroke="#937de4"></path><path d="M537 118L565 42L497 66Z" fill="#a895f0" stroke="#a895f0"></path><path d="M442 0L370 42L446 60Z" fill="#5137bb" stroke="#5137bb"></path><path d="M565 42L551 0L497 66Z" fill="#a895f0" stroke="#a895f0"></path><path d="M494 168L565 135L537 118Z" fill="#bdadfd" stroke="#bdadfd"></path><path d="M537 118L594 116L565 42Z" fill="#9d89ea" stroke="#9d89ea"></path><path d="M442 0L382 0L370 42Z" fill="#5d43c2" stroke="#5d43c2"></path><path d="M348 118L367 147L403 107Z" fill="#b2a1f7" stroke="#b2a1f7"></path><path d="M403 107L367 147L456 145Z" fill="#937de4" stroke="#937de4"></path><path d="M456 145L448 200L494 168Z" fill="#684ec9" stroke="#684ec9"></path><path d="M399 200L448 200L456 145Z" fill="#735ad0" stroke="#735ad0"></path><path d="M494 168L568 200L565 135Z" fill="#b2a1f7" stroke="#b2a1f7"></path><path d="M332 37L348 118L370 42Z" fill="#5d43c2" stroke="#5d43c2"></path><path d="M370 42L348 118L403 107Z" fill="#684ec9" stroke="#684ec9"></path><path d="M565 135L594 116L537 118Z" fill="#bdadfd" stroke="#bdadfd"></path><path d="M565 42L590 0L551 0Z" fill="#bdadfd" stroke="#bdadfd"></path><path d="M448 200L506 200L494 168Z" fill="#5d43c2" stroke="#5d43c2"></path><path d="M565 135L591 155L594 116Z" fill="#735ad0" stroke="#735ad0"></path><path d="M619 37L590 0L565 42Z" fill="#9d89ea" stroke="#9d89ea"></path><path d="M382 0L332 37L370 42Z" fill="#684ec9" stroke="#684ec9"></path><path d="M342 200L399 200L367 147Z" fill="#bdadfd" stroke="#bdadfd"></path><path d="M367 147L399 200L456 145Z" fill="#9d89ea" stroke="#9d89ea"></path><path d="M568 200L591 155L565 135Z" fill="#684ec9" stroke="#684ec9"></path><path d="M594 116L619 37L565 42Z" fill="#937de4" stroke="#937de4"></path><path d="M645 99L619 37L594 116Z" fill="#7d65d6" stroke="#7d65d6"></path><path d="M506 200L568 200L494 168Z" fill="#937de4" stroke="#937de4"></path><path d="M382 0L325 0L332 37Z" fill="#684ec9" stroke="#684ec9"></path><path d="M292 97L322 161L348 118Z" fill="#9d89ea" stroke="#9d89ea"></path><path d="M348 118L322 161L367 147Z" fill="#5d43c2" stroke="#5d43c2"></path><path d="M292 97L348 118L332 37Z" fill="#5137bb" stroke="#5137bb"></path><path d="M675 168L645 99L591 155Z" fill="#735ad0" stroke="#735ad0"></path><path d="M591 155L645 99L594 116Z" fill="#a895f0" stroke="#a895f0"></path><path d="M256 52L292 97L332 37Z" fill="#9d89ea" stroke="#9d89ea"></path><path d="M322 161L342 200L367 147Z" fill="#a895f0" stroke="#a895f0"></path><path d="M568 200L607 200L591 155Z" fill="#7d65d6" stroke="#7d65d6"></path><path d="M679 49L654 0L619 37Z" fill="#b2a1f7" stroke="#b2a1f7"></path><path d="M619 37L654 0L590 0Z" fill="#8871dd" stroke="#8871dd"></path><path d="M292 97L283 152L322 161Z" fill="#684ec9" stroke="#684ec9"></path><path d="M322 161L262 200L342 200Z" fill="#5137bb" stroke="#5137bb"></path><path d="M325 0L280 0L332 37Z" fill="#735ad0" stroke="#735ad0"></path><path d="M292 97L201 142L283 152Z" fill="#9d89ea" stroke="#9d89ea"></path><path d="M645 99L679 49L619 37Z" fill="#735ad0" stroke="#735ad0"></path><path d="M713 51L679 49L731 91Z" fill="#a895f0" stroke="#a895f0"></path><path d="M607 200L641 200L591 155Z" fill="#8871dd" stroke="#8871dd"></path><path d="M280 0L256 52L332 37Z" fill="#7d65d6" stroke="#7d65d6"></path><path d="M641 200L675 168L591 155Z" fill="#5d43c2" stroke="#5d43c2"></path><path d="M211 0L234 61L256 52Z" fill="#735ad0" stroke="#735ad0"></path><path d="M256 52L234 61L292 97Z" fill="#7d65d6" stroke="#7d65d6"></path><path d="M713 51L700 0L679 49Z" fill="#bdadfd" stroke="#bdadfd"></path><path d="M679 49L700 0L654 0Z" fill="#684ec9" stroke="#684ec9"></path><path d="M731 91L679 49L645 99Z" fill="#5d43c2" stroke="#5d43c2"></path><path d="M232 200L262 200L283 152Z" fill="#bdadfd" stroke="#bdadfd"></path><path d="M283 152L262 200L322 161Z" fill="#a895f0" stroke="#a895f0"></path><path d="M675 168L731 91L645 99Z" fill="#937de4" stroke="#937de4"></path><path d="M713 51L789 0L700 0Z" fill="#684ec9" stroke="#684ec9"></path><path d="M234 61L205 81L292 97Z" fill="#7d65d6" stroke="#7d65d6"></path><path d="M172 33L205 81L234 61Z" fill="#b2a1f7" stroke="#b2a1f7"></path><path d="M280 0L211 0L256 52Z" fill="#7d65d6" stroke="#7d65d6"></path><path d="M201 142L232 200L283 152Z" fill="#5d43c2" stroke="#5d43c2"></path><path d="M728 200L734 155L675 168Z" fill="#937de4" stroke="#937de4"></path><path d="M675 168L734 155L731 91Z" fill="#735ad0" stroke="#735ad0"></path><path d="M205 81L201 142L292 97Z" fill="#7d65d6" stroke="#7d65d6"></path><path d="M641 200L728 200L675 168Z" fill="#5137bb" stroke="#5137bb"></path><path d="M766 141L731 91L734 155Z" fill="#8871dd" stroke="#8871dd"></path><path d="M766 141L766 99L731 91Z" fill="#a895f0" stroke="#a895f0"></path><path d="M731 91L782 54L713 51Z" fill="#5d43c2" stroke="#5d43c2"></path><path d="M211 0L172 33L234 61Z" fill="#735ad0" stroke="#735ad0"></path><path d="M205 81L146 86L201 142Z" fill="#9d89ea" stroke="#9d89ea"></path><path d="M770 200L766 141L734 155Z" fill="#8871dd" stroke="#8871dd"></path><path d="M810 59L782 54L766 99Z" fill="#b2a1f7" stroke="#b2a1f7"></path><path d="M766 99L782 54L731 91Z" fill="#bdadfd" stroke="#bdadfd"></path><path d="M146 137L183 200L201 142Z" fill="#8871dd" stroke="#8871dd"></path><path d="M201 142L183 200L232 200Z" fill="#8871dd" stroke="#8871dd"></path><path d="M172 33L146 86L205 81Z" fill="#684ec9" stroke="#684ec9"></path><path d="M728 200L770 200L734 155Z" fill="#8871dd" stroke="#8871dd"></path><path d="M839 85L810 59L766 99Z" fill="#7d65d6" stroke="#7d65d6"></path><path d="M810 59L789 0L782 54Z" fill="#5137bb" stroke="#5137bb"></path><path d="M782 54L789 0L713 51Z" fill="#5137bb" stroke="#5137bb"></path><path d="M211 0L150 0L172 33Z" fill="#937de4" stroke="#937de4"></path><path d="M172 33L125 46L146 86Z" fill="#937de4" stroke="#937de4"></path><path d="M146 86L146 137L201 142Z" fill="#8871dd" stroke="#8871dd"></path><path d="M839 85L766 99L839 132Z" fill="#b2a1f7" stroke="#b2a1f7"></path><path d="M150 0L125 46L172 33Z" fill="#735ad0" stroke="#735ad0"></path><path d="M94 103L108 144L146 137Z" fill="#684ec9" stroke="#684ec9"></path><path d="M810 59L823 0L789 0Z" fill="#bdadfd" stroke="#bdadfd"></path><path d="M150 0L116 0L125 46Z" fill="#684ec9" stroke="#684ec9"></path><path d="M839 132L766 99L766 141Z" fill="#8871dd" stroke="#8871dd"></path><path d="M810 59L880 59L823 0Z" fill="#7d65d6" stroke="#7d65d6"></path><path d="M94 103L146 86L125 46Z" fill="#a895f0" stroke="#a895f0"></path><path d="M94 103L146 137L146 86Z" fill="#8871dd" stroke="#8871dd"></path><path d="M146 137L93 200L183 200Z" fill="#9d89ea" stroke="#9d89ea"></path><path d="M770 200L817 200L766 141Z" fill="#8871dd" stroke="#8871dd"></path><path d="M817 200L839 132L766 141Z" fill="#937de4" stroke="#937de4"></path><path d="M54 39L94 103L125 46Z" fill="#684ec9" stroke="#684ec9"></path><path d="M45 153L93 200L108 144Z" fill="#735ad0" stroke="#735ad0"></path><path d="M108 144L93 200L146 137Z" fill="#b2a1f7" stroke="#b2a1f7"></path><path d="M880 109L839 85L839 132Z" fill="#5137bb" stroke="#5137bb"></path><path d="M880 109L880 59L839 85Z" fill="#a895f0" stroke="#a895f0"></path><path d="M839 85L880 59L810 59Z" fill="#684ec9" stroke="#684ec9"></path><path d="M880 143L880 109L839 132Z" fill="#5d43c2" stroke="#5d43c2"></path><path d="M880 200L880 143L839 132Z" fill="#a895f0" stroke="#a895f0"></path><path d="M880 59L880 0L823 0Z" fill="#b2a1f7" stroke="#b2a1f7"></path><path d="M116 0L54 39L125 46Z" fill="#9d89ea" stroke="#9d89ea"></path><path d="M94 103L45 153L108 144Z" fill="#b2a1f7" stroke="#b2a1f7"></path><path d="M54 39L51 104L94 103Z" fill="#a895f0" stroke="#a895f0"></path><path d="M817 200L880 200L839 132Z" fill="#b2a1f7" stroke="#b2a1f7"></path><path d="M116 0L45 0L54 39Z" fill="#9d89ea" stroke="#9d89ea"></path><path d="M0 59L0 84L51 104Z" fill="#a895f0" stroke="#a895f0"></path><path d="M0 144L45 153L51 104Z" fill="#a895f0" stroke="#a895f0"></path><path d="M51 104L45 153L94 103Z" fill="#b2a1f7" stroke="#b2a1f7"></path><path d="M0 200L37 200L45 153Z" fill="#b2a1f7" stroke="#b2a1f7"></path><path d="M45 153L37 200L93 200Z" fill="#8871dd" stroke="#8871dd"></path><path d="M0 59L51 104L54 39Z" fill="#8871dd" stroke="#8871dd"></path><path d="M0 0L0 59L54 39Z" fill="#a895f0" stroke="#a895f0"></path><path d="M0 84L0 144L51 104Z" fill="#bdadfd" stroke="#bdadfd"></path><path d="M45 0L0 0L54 39Z" fill="#684ec9" stroke="#684ec9"></path><path d="M0 144L0 200L45 153Z" fill="#7d65d6" stroke="#7d65d6"></path></g></svg>