<svg id="visual" viewBox="0 0 880 200" width="880" height="200" xmlns="http://www.w3.org/2000/svg" xmlns:xlink="http://www.w3.org/1999/xlink" version="1.1"><g stroke-width="1" stroke-linejoin="bevel"><path d="M427 108L410 100L413 106Z" fill="#d52123" stroke="#d52123"></path><path d="M427 108L443 55L410 100Z" fill="#b61a1e" stroke="#b61a1e"></path><path d="M374 126L417 147L413 106Z" fill="#891116" stroke="#891116"></path><path d="M413 106L417 147L427 108Z" fill="#e52525" stroke="#e52525"></path><path d="M427 108L465 139L443 55Z" fill="#d52123" stroke="#d52123"></path><path d="M349 99L374 126L410 100Z" fill="#e52525" stroke="#e52525"></path><path d="M410 100L374 126L413 106Z" fill="#6d0c10" stroke="#6d0c10"></path><path d="M417 147L465 139L427 108Z" fill="#d52123" stroke="#d52123"></path><path d="M443 55L399 41L410 100Z" fill="#5f090c" stroke="#5f090c"></path><path d="M343 77L349 99L410 100Z" fill="#6d0c10" stroke="#6d0c10"></path><path d="M417 147L455 165L465 139Z" fill="#7b0e13" stroke="#7b0e13"></path><path d="M343 77L341 88L349 99Z" fill="#891116" stroke="#891116"></path><path d="M399 41L343 77L410 100Z" fill="#d52123" stroke="#d52123"></path><path d="M422 0L400 12L399 41Z" fill="#981419" stroke="#981419"></path><path d="M399 41L339 21L343 77Z" fill="#b61a1e" stroke="#b61a1e"></path><path d="M465 139L496 35L443 55Z" fill="#891116" stroke="#891116"></path><path d="M443 55L422 0L399 41Z" fill="#7b0e13" stroke="#7b0e13"></path><path d="M434 0L422 0L443 55Z" fill="#981419" stroke="#981419"></path><path d="M465 0L434 0L443 55Z" fill="#5f090c" stroke="#5f090c"></path><path d="M422 0L397 0L400 12Z" fill="#7b0e13" stroke="#7b0e13"></path><path d="M365 0L339 21L399 41Z" fill="#7b0e13" stroke="#7b0e13"></path><path d="M372 190L421 200L417 147Z" fill="#b61a1e" stroke="#b61a1e"></path><path d="M417 147L421 200L455 165Z" fill="#e52525" stroke="#e52525"></path><path d="M372 190L417 147L374 126Z" fill="#e52525" stroke="#e52525"></path><path d="M328 140L374 126L349 99Z" fill="#520707" stroke="#520707"></path><path d="M320 133L349 99L312 114Z" fill="#891116" stroke="#891116"></path><path d="M320 133L328 140L349 99Z" fill="#5f090c" stroke="#5f090c"></path><path d="M328 140L372 190L374 126Z" fill="#891116" stroke="#891116"></path><path d="M312 114L349 99L341 88Z" fill="#5f090c" stroke="#5f090c"></path><path d="M328 140L362 200L372 190Z" fill="#7b0e13" stroke="#7b0e13"></path><path d="M496 35L465 0L443 55Z" fill="#981419" stroke="#981419"></path><path d="M300 77L312 114L341 88Z" fill="#d52123" stroke="#d52123"></path><path d="M300 77L341 88L343 77Z" fill="#c61e20" stroke="#c61e20"></path><path d="M365 0L399 41L400 12Z" fill="#c61e20" stroke="#c61e20"></path><path d="M397 0L365 0L400 12Z" fill="#d52123" stroke="#d52123"></path><path d="M299 200L362 200L328 140Z" fill="#520707" stroke="#520707"></path><path d="M372 190L362 200L421 200Z" fill="#5f090c" stroke="#5f090c"></path><path d="M455 165L488 200L465 139Z" fill="#d52123" stroke="#d52123"></path><path d="M465 139L554 81L496 35Z" fill="#c61e20" stroke="#c61e20"></path><path d="M421 200L481 200L455 165Z" fill="#c61e20" stroke="#c61e20"></path><path d="M481 200L488 200L455 165Z" fill="#520707" stroke="#520707"></path><path d="M339 21L300 77L343 77Z" fill="#c61e20" stroke="#c61e20"></path><path d="M365 0L342 0L339 21Z" fill="#6d0c10" stroke="#6d0c10"></path><path d="M339 21L280 41L300 77Z" fill="#d52123" stroke="#d52123"></path><path d="M488 200L500 200L465 139Z" fill="#981419" stroke="#981419"></path><path d="M500 200L537 156L465 139Z" fill="#6d0c10" stroke="#6d0c10"></path><path d="M537 156L554 81L465 139Z" fill="#891116" stroke="#891116"></path><path d="M496 35L534 0L465 0Z" fill="#981419" stroke="#981419"></path><path d="M554 81L558 49L496 35Z" fill="#981419" stroke="#981419"></path><path d="M558 49L534 0L496 35Z" fill="#d52123" stroke="#d52123"></path><path d="M342 0L280 41L339 21Z" fill="#5f090c" stroke="#5f090c"></path><path d="M253 123L320 133L312 114Z" fill="#7b0e13" stroke="#7b0e13"></path><path d="M253 123L299 200L320 133Z" fill="#d52123" stroke="#d52123"></path><path d="M554 81L570 43L558 49Z" fill="#a7171c" stroke="#a7171c"></path><path d="M558 49L566 32L534 0Z" fill="#6d0c10" stroke="#6d0c10"></path><path d="M597 83L570 43L554 81Z" fill="#d52123" stroke="#d52123"></path><path d="M570 43L566 32L558 49Z" fill="#e52525" stroke="#e52525"></path><path d="M320 133L299 200L328 140Z" fill="#c61e20" stroke="#c61e20"></path><path d="M253 123L312 114L300 77Z" fill="#d52123" stroke="#d52123"></path><path d="M500 200L556 195L537 156Z" fill="#891116" stroke="#891116"></path><path d="M595 104L595 102L554 81Z" fill="#d52123" stroke="#d52123"></path><path d="M247 116L253 123L300 77Z" fill="#d52123" stroke="#d52123"></path><path d="M595 104L554 81L537 156Z" fill="#b61a1e" stroke="#b61a1e"></path><path d="M570 43L598 0L566 32Z" fill="#7b0e13" stroke="#7b0e13"></path><path d="M590 147L595 104L537 156Z" fill="#7b0e13" stroke="#7b0e13"></path><path d="M247 64L247 116L300 77Z" fill="#c61e20" stroke="#c61e20"></path><path d="M253 123L242 185L299 200Z" fill="#6d0c10" stroke="#6d0c10"></path><path d="M556 195L590 147L537 156Z" fill="#b61a1e" stroke="#b61a1e"></path><path d="M660 57L597 83L595 102Z" fill="#e52525" stroke="#e52525"></path><path d="M595 102L597 83L554 81Z" fill="#520707" stroke="#520707"></path><path d="M280 41L247 64L300 77Z" fill="#a7171c" stroke="#a7171c"></path><path d="M229 0L251 44L280 41Z" fill="#5f090c" stroke="#5f090c"></path><path d="M280 41L251 44L247 64Z" fill="#e52525" stroke="#e52525"></path><path d="M500 200L590 200L556 195Z" fill="#7b0e13" stroke="#7b0e13"></path><path d="M556 195L590 200L590 147Z" fill="#7b0e13" stroke="#7b0e13"></path><path d="M590 147L641 147L595 104Z" fill="#5f090c" stroke="#5f090c"></path><path d="M595 104L641 147L595 102Z" fill="#b61a1e" stroke="#b61a1e"></path><path d="M202 151L253 123L247 116Z" fill="#7b0e13" stroke="#7b0e13"></path><path d="M202 151L242 185L253 123Z" fill="#891116" stroke="#891116"></path><path d="M566 32L598 0L534 0Z" fill="#c61e20" stroke="#c61e20"></path><path d="M622 0L598 0L570 43Z" fill="#5f090c" stroke="#5f090c"></path><path d="M247 64L216 110L247 116Z" fill="#c61e20" stroke="#c61e20"></path><path d="M184 84L216 110L247 64Z" fill="#e52525" stroke="#e52525"></path><path d="M590 200L605 192L590 147Z" fill="#d52123" stroke="#d52123"></path><path d="M597 83L622 0L570 43Z" fill="#981419" stroke="#981419"></path><path d="M242 185L238 200L299 200Z" fill="#891116" stroke="#891116"></path><path d="M230 200L238 200L242 185Z" fill="#e52525" stroke="#e52525"></path><path d="M342 0L229 0L280 41Z" fill="#5f090c" stroke="#5f090c"></path><path d="M251 44L184 84L247 64Z" fill="#5f090c" stroke="#5f090c"></path><path d="M590 200L612 200L605 192Z" fill="#520707" stroke="#520707"></path><path d="M605 192L641 147L590 147Z" fill="#5f090c" stroke="#5f090c"></path><path d="M202 151L230 200L242 185Z" fill="#6d0c10" stroke="#6d0c10"></path><path d="M229 0L222 0L251 44Z" fill="#d52123" stroke="#d52123"></path><path d="M660 57L622 0L597 83Z" fill="#981419" stroke="#981419"></path><path d="M612 200L641 147L605 192Z" fill="#7b0e13" stroke="#7b0e13"></path><path d="M180 120L202 151L216 110Z" fill="#d52123" stroke="#d52123"></path><path d="M216 110L202 151L247 116Z" fill="#6d0c10" stroke="#6d0c10"></path><path d="M222 0L184 84L251 44Z" fill="#891116" stroke="#891116"></path><path d="M641 147L660 57L595 102Z" fill="#5f090c" stroke="#5f090c"></path><path d="M184 84L180 120L216 110Z" fill="#d52123" stroke="#d52123"></path><path d="M202 151L174 159L230 200Z" fill="#6d0c10" stroke="#6d0c10"></path><path d="M669 172L658 151L641 147Z" fill="#981419" stroke="#981419"></path><path d="M641 147L658 151L660 57Z" fill="#7b0e13" stroke="#7b0e13"></path><path d="M184 84L171 122L180 120Z" fill="#6d0c10" stroke="#6d0c10"></path><path d="M180 120L174 159L202 151Z" fill="#5f090c" stroke="#5f090c"></path><path d="M171 122L174 159L180 120Z" fill="#b61a1e" stroke="#b61a1e"></path><path d="M612 200L669 172L641 147Z" fill="#b61a1e" stroke="#b61a1e"></path><path d="M658 151L708 72L660 57Z" fill="#5f090c" stroke="#5f090c"></path><path d="M708 32L676 14L660 57Z" fill="#981419" stroke="#981419"></path><path d="M660 57L676 14L622 0Z" fill="#7b0e13" stroke="#7b0e13"></path><path d="M612 200L670 200L669 172Z" fill="#a7171c" stroke="#a7171c"></path><path d="M740 96L708 72L658 151Z" fill="#c61e20" stroke="#c61e20"></path><path d="M222 0L159 11L184 84Z" fill="#c61e20" stroke="#c61e20"></path><path d="M107 119L129 141L171 122Z" fill="#520707" stroke="#520707"></path><path d="M171 122L129 141L174 159Z" fill="#981419" stroke="#981419"></path><path d="M719 188L658 151L669 172Z" fill="#891116" stroke="#891116"></path><path d="M222 0L149 0L159 11Z" fill="#c61e20" stroke="#c61e20"></path><path d="M107 119L171 122L184 84Z" fill="#b61a1e" stroke="#b61a1e"></path><path d="M708 72L708 32L660 57Z" fill="#6d0c10" stroke="#6d0c10"></path><path d="M107 119L184 84L117 8Z" fill="#e52525" stroke="#e52525"></path><path d="M174 159L140 200L230 200Z" fill="#6d0c10" stroke="#6d0c10"></path><path d="M708 32L703 9L676 14Z" fill="#891116" stroke="#891116"></path><path d="M676 14L703 9L622 0Z" fill="#c61e20" stroke="#c61e20"></path><path d="M129 141L140 200L174 159Z" fill="#d52123" stroke="#d52123"></path><path d="M149 0L136 0L159 11Z" fill="#891116" stroke="#891116"></path><path d="M670 200L719 188L669 172Z" fill="#6d0c10" stroke="#6d0c10"></path><path d="M708 72L748 44L708 32Z" fill="#e52525" stroke="#e52525"></path><path d="M117 8L184 84L159 11Z" fill="#891116" stroke="#891116"></path><path d="M129 141L113 200L140 200Z" fill="#e52525" stroke="#e52525"></path><path d="M136 0L117 8L159 11Z" fill="#d52123" stroke="#d52123"></path><path d="M719 188L740 96L658 151Z" fill="#a7171c" stroke="#a7171c"></path><path d="M708 32L746 0L703 9Z" fill="#981419" stroke="#981419"></path><path d="M736 200L728 190L719 188Z" fill="#d52123" stroke="#d52123"></path><path d="M719 188L728 190L740 96Z" fill="#5f090c" stroke="#5f090c"></path><path d="M86 200L113 200L129 141Z" fill="#520707" stroke="#520707"></path><path d="M670 200L736 200L719 188Z" fill="#c61e20" stroke="#c61e20"></path><path d="M806 111L761 90L807 150Z" fill="#c61e20" stroke="#c61e20"></path><path d="M761 90L748 44L740 96Z" fill="#6d0c10" stroke="#6d0c10"></path><path d="M740 96L748 44L708 72Z" fill="#b61a1e" stroke="#b61a1e"></path><path d="M748 44L746 0L708 32Z" fill="#7b0e13" stroke="#7b0e13"></path><path d="M703 9L746 0L622 0Z" fill="#b61a1e" stroke="#b61a1e"></path><path d="M761 90L740 96L807 150Z" fill="#6d0c10" stroke="#6d0c10"></path><path d="M748 44L748 0L746 0Z" fill="#6d0c10" stroke="#6d0c10"></path><path d="M776 0L748 0L748 44Z" fill="#a7171c" stroke="#a7171c"></path><path d="M117 8L87 22L107 119Z" fill="#7b0e13" stroke="#7b0e13"></path><path d="M62 143L86 200L129 141Z" fill="#981419" stroke="#981419"></path><path d="M62 143L129 141L107 119Z" fill="#d52123" stroke="#d52123"></path><path d="M66 118L70 120L50 101Z" fill="#5f090c" stroke="#5f090c"></path><path d="M50 101L70 120L107 119Z" fill="#7b0e13" stroke="#7b0e13"></path><path d="M70 120L62 143L107 119Z" fill="#e52525" stroke="#e52525"></path><path d="M66 118L62 143L70 120Z" fill="#7b0e13" stroke="#7b0e13"></path><path d="M62 143L68 201L86 200Z" fill="#d52123" stroke="#d52123"></path><path d="M86 200L68 201L113 200Z" fill="#b61a1e" stroke="#b61a1e"></path><path d="M113 200L68 201L140 200Z" fill="#7b0e13" stroke="#7b0e13"></path><path d="M140 200L68 201L230 200Z" fill="#d52123" stroke="#d52123"></path><path d="M230 200L68 201L238 200Z" fill="#5f090c" stroke="#5f090c"></path><path d="M238 200L68 201L299 200Z" fill="#891116" stroke="#891116"></path><path d="M299 200L68 201L362 200Z" fill="#520707" stroke="#520707"></path><path d="M362 200L68 201L421 200Z" fill="#d52123" stroke="#d52123"></path><path d="M421 200L68 201L481 200Z" fill="#891116" stroke="#891116"></path><path d="M481 200L68 201L488 200Z" fill="#e52525" stroke="#e52525"></path><path d="M488 200L68 201L500 200Z" fill="#520707" stroke="#520707"></path><path d="M500 200L68 201L590 200Z" fill="#981419" stroke="#981419"></path><path d="M590 200L68 201L612 200Z" fill="#5f090c" stroke="#5f090c"></path><path d="M612 200L68 201L670 200Z" fill="#c61e20" stroke="#c61e20"></path><path d="M670 200L68 201L736 200Z" fill="#520707" stroke="#520707"></path><path d="M787 14L776 0L748 44Z" fill="#6d0c10" stroke="#6d0c10"></path><path d="M87 22L56 44L107 119Z" fill="#b61a1e" stroke="#b61a1e"></path><path d="M66 118L50 101L62 143Z" fill="#c61e20" stroke="#c61e20"></path><path d="M56 44L50 101L107 119Z" fill="#891116" stroke="#891116"></path><path d="M62 143L27 200L68 201Z" fill="#c61e20" stroke="#c61e20"></path><path d="M68 201L780 200L736 200Z" fill="#c61e20" stroke="#c61e20"></path><path d="M736 200L780 200L728 190Z" fill="#6d0c10" stroke="#6d0c10"></path><path d="M819 69L787 14L748 44Z" fill="#c61e20" stroke="#c61e20"></path><path d="M819 69L748 44L761 90Z" fill="#5f090c" stroke="#5f090c"></path><path d="M68 201L787 200L780 200Z" fill="#5f090c" stroke="#5f090c"></path><path d="M806 111L801 93L761 90Z" fill="#981419" stroke="#981419"></path><path d="M740 96L728 190L807 150Z" fill="#981419" stroke="#981419"></path><path d="M87 22L54 0L56 44Z" fill="#a7171c" stroke="#a7171c"></path><path d="M0 71L0 106L50 101Z" fill="#6d0c10" stroke="#6d0c10"></path><path d="M117 8L54 0L87 22Z" fill="#5f090c" stroke="#5f090c"></path><path d="M136 0L54 0L117 8Z" fill="#e52525" stroke="#e52525"></path><path d="M807 150L728 190L780 200Z" fill="#7b0e13" stroke="#7b0e13"></path><path d="M801 93L819 69L761 90Z" fill="#6d0c10" stroke="#6d0c10"></path><path d="M787 200L807 150L780 200Z" fill="#a7171c" stroke="#a7171c"></path><path d="M837 77L801 93L840 101Z" fill="#5f090c" stroke="#5f090c"></path><path d="M837 77L819 69L801 93Z" fill="#981419" stroke="#981419"></path><path d="M0 111L27 200L62 143Z" fill="#d52123" stroke="#d52123"></path><path d="M0 111L62 143L50 101Z" fill="#5f090c" stroke="#5f090c"></path><path d="M54 0L24 0L56 44Z" fill="#6d0c10" stroke="#6d0c10"></path><path d="M840 101L801 93L806 111Z" fill="#d52123" stroke="#d52123"></path><path d="M819 69L873 0L787 14Z" fill="#a7171c" stroke="#a7171c"></path><path d="M787 14L873 0L776 0Z" fill="#b61a1e" stroke="#b61a1e"></path><path d="M840 101L806 111L807 150Z" fill="#520707" stroke="#520707"></path><path d="M868 127L840 101L807 150Z" fill="#5f090c" stroke="#5f090c"></path><path d="M0 71L50 101L56 44Z" fill="#e52525" stroke="#e52525"></path><path d="M0 106L0 111L50 101Z" fill="#a7171c" stroke="#a7171c"></path><path d="M0 62L0 71L56 44Z" fill="#6d0c10" stroke="#6d0c10"></path><path d="M24 0L0 62L56 44Z" fill="#b61a1e" stroke="#b61a1e"></path><path d="M24 0L0 0L0 62Z" fill="#520707" stroke="#520707"></path><path d="M0 111L0 200L27 200Z" fill="#981419" stroke="#981419"></path><path d="M27 200L0 200L68 201Z" fill="#d52123" stroke="#d52123"></path><path d="M68 201L852 200L787 200Z" fill="#981419" stroke="#981419"></path><path d="M787 200L852 200L807 150Z" fill="#b61a1e" stroke="#b61a1e"></path><path d="M880 144L868 127L807 150Z" fill="#e52525" stroke="#e52525"></path><path d="M840 101L880 65L837 77Z" fill="#981419" stroke="#981419"></path><path d="M880 144L880 123L868 127Z" fill="#d52123" stroke="#d52123"></path><path d="M868 127L880 123L840 101Z" fill="#b61a1e" stroke="#b61a1e"></path><path d="M837 77L873 0L819 69Z" fill="#d52123" stroke="#d52123"></path><path d="M880 123L880 65L840 101Z" fill="#c61e20" stroke="#c61e20"></path><path d="M852 200L880 144L807 150Z" fill="#6d0c10" stroke="#6d0c10"></path><path d="M880 7L873 0L837 77Z" fill="#981419" stroke="#981419"></path><path d="M880 65L880 7L837 77Z" fill="#5f090c" stroke="#5f090c"></path><path d="M880 7L880 0L873 0Z" fill="#5f090c" stroke="#5f090c"></path><path d="M68 201L880 200L852 200Z" fill="#b61a1e" stroke="#b61a1e"></path><path d="M852 200L880 200L880 144Z" fill="#891116" stroke="#891116"></path></g></svg>