<svg id="visual" viewBox="0 0 880 200" width="880" height="200" xmlns="http://www.w3.org/2000/svg" xmlns:xlink="http://www.w3.org/1999/xlink" version="1.1"><g stroke-width="1" stroke-linejoin="bevel"><path d="M453 89L441 63L402 114Z" fill="#da6928" stroke="#da6928"></path><path d="M441 63L392 54L402 114Z" fill="#be451d" stroke="#be451d"></path><path d="M428 167L483 102L453 89Z" fill="#d36025" stroke="#d36025"></path><path d="M453 89L510 30L441 63Z" fill="#e77b2e" stroke="#e77b2e"></path><path d="M325 149L394 154L402 114Z" fill="#e77b2e" stroke="#e77b2e"></path><path d="M402 114L428 167L453 89Z" fill="#f48d35" stroke="#f48d35"></path><path d="M394 154L428 167L402 114Z" fill="#e77b2e" stroke="#e77b2e"></path><path d="M428 167L496 139L483 102Z" fill="#fa9639" stroke="#fa9639"></path><path d="M392 54L329 86L402 114Z" fill="#e77b2e" stroke="#e77b2e"></path><path d="M486 0L452 0L441 63Z" fill="#d36025" stroke="#d36025"></path><path d="M441 63L452 0L392 54Z" fill="#e1722b" stroke="#e1722b"></path><path d="M392 54L331 50L329 86Z" fill="#d36025" stroke="#d36025"></path><path d="M510 30L453 89L483 102Z" fill="#f48d35" stroke="#f48d35"></path><path d="M372 0L331 50L392 54Z" fill="#be451d" stroke="#be451d"></path><path d="M452 0L372 0L392 54Z" fill="#b73c1b" stroke="#b73c1b"></path><path d="M550 49L510 30L483 102Z" fill="#c54e20" stroke="#c54e20"></path><path d="M510 30L486 0L441 63Z" fill="#d36025" stroke="#d36025"></path><path d="M394 154L421 200L428 167Z" fill="#e1722b" stroke="#e1722b"></path><path d="M428 167L486 200L496 139Z" fill="#b73c1b" stroke="#b73c1b"></path><path d="M375 200L421 200L394 154Z" fill="#fa9639" stroke="#fa9639"></path><path d="M269 141L325 149L329 86Z" fill="#c54e20" stroke="#c54e20"></path><path d="M329 86L325 149L402 114Z" fill="#d36025" stroke="#d36025"></path><path d="M372 0L349 0L331 50Z" fill="#fa9639" stroke="#fa9639"></path><path d="M325 149L375 200L394 154Z" fill="#be451d" stroke="#be451d"></path><path d="M547 135L545 104L496 139Z" fill="#c54e20" stroke="#c54e20"></path><path d="M496 139L545 104L483 102Z" fill="#be451d" stroke="#be451d"></path><path d="M421 200L486 200L428 167Z" fill="#f48d35" stroke="#f48d35"></path><path d="M562 200L547 135L496 139Z" fill="#b73c1b" stroke="#b73c1b"></path><path d="M545 104L550 49L483 102Z" fill="#fa9639" stroke="#fa9639"></path><path d="M510 30L565 0L486 0Z" fill="#cc5722" stroke="#cc5722"></path><path d="M565 0L550 49L594 0Z" fill="#e1722b" stroke="#e1722b"></path><path d="M349 0L284 41L331 50Z" fill="#da6928" stroke="#da6928"></path><path d="M331 50L284 41L329 86Z" fill="#c54e20" stroke="#c54e20"></path><path d="M325 149L329 200L375 200Z" fill="#fa9639" stroke="#fa9639"></path><path d="M259 200L329 200L325 149Z" fill="#be451d" stroke="#be451d"></path><path d="M284 41L267 81L329 86Z" fill="#fa9639" stroke="#fa9639"></path><path d="M267 81L269 141L329 86Z" fill="#be451d" stroke="#be451d"></path><path d="M616 66L550 49L545 104Z" fill="#f48d35" stroke="#f48d35"></path><path d="M550 49L565 0L510 30Z" fill="#be451d" stroke="#be451d"></path><path d="M208 39L207 91L267 81Z" fill="#be451d" stroke="#be451d"></path><path d="M349 0L272 0L284 41Z" fill="#ee8432" stroke="#ee8432"></path><path d="M486 200L562 200L496 139Z" fill="#e77b2e" stroke="#e77b2e"></path><path d="M547 135L621 104L545 104Z" fill="#be451d" stroke="#be451d"></path><path d="M562 200L602 158L547 135Z" fill="#e1722b" stroke="#e1722b"></path><path d="M616 66L594 0L550 49Z" fill="#fa9639" stroke="#fa9639"></path><path d="M621 104L616 66L545 104Z" fill="#fa9639" stroke="#fa9639"></path><path d="M269 141L259 200L325 149Z" fill="#e1722b" stroke="#e1722b"></path><path d="M203 163L259 200L269 141Z" fill="#da6928" stroke="#da6928"></path><path d="M207 91L269 141L267 81Z" fill="#b73c1b" stroke="#b73c1b"></path><path d="M602 158L621 104L547 135Z" fill="#fa9639" stroke="#fa9639"></path><path d="M208 39L267 81L284 41Z" fill="#e1722b" stroke="#e1722b"></path><path d="M272 0L223 0L284 41Z" fill="#fa9639" stroke="#fa9639"></path><path d="M223 0L208 39L284 41Z" fill="#e77b2e" stroke="#e77b2e"></path><path d="M154 145L203 163L207 91Z" fill="#da6928" stroke="#da6928"></path><path d="M207 91L203 163L269 141Z" fill="#da6928" stroke="#da6928"></path><path d="M562 200L623 200L602 158Z" fill="#e77b2e" stroke="#e77b2e"></path><path d="M602 158L649 166L621 104Z" fill="#da6928" stroke="#da6928"></path><path d="M203 163L218 200L259 200Z" fill="#be451d" stroke="#be451d"></path><path d="M623 200L649 166L602 158Z" fill="#cc5722" stroke="#cc5722"></path><path d="M677 53L659 0L616 66Z" fill="#cc5722" stroke="#cc5722"></path><path d="M164 0L179 57L208 39Z" fill="#be451d" stroke="#be451d"></path><path d="M208 39L179 57L207 91Z" fill="#ee8432" stroke="#ee8432"></path><path d="M623 200L646 200L649 166Z" fill="#e1722b" stroke="#e1722b"></path><path d="M678 93L616 66L621 104Z" fill="#b73c1b" stroke="#b73c1b"></path><path d="M616 66L659 0L594 0Z" fill="#da6928" stroke="#da6928"></path><path d="M725 134L678 93L649 166Z" fill="#be451d" stroke="#be451d"></path><path d="M649 166L678 93L621 104Z" fill="#f48d35" stroke="#f48d35"></path><path d="M678 93L677 53L616 66Z" fill="#da6928" stroke="#da6928"></path><path d="M179 57L158 95L207 91Z" fill="#e77b2e" stroke="#e77b2e"></path><path d="M203 163L173 200L218 200Z" fill="#da6928" stroke="#da6928"></path><path d="M223 0L164 0L208 39Z" fill="#f48d35" stroke="#f48d35"></path><path d="M109 66L120 101L158 95Z" fill="#cc5722" stroke="#cc5722"></path><path d="M154 145L173 200L203 163Z" fill="#f48d35" stroke="#f48d35"></path><path d="M120 101L154 145L158 95Z" fill="#e1722b" stroke="#e1722b"></path><path d="M158 95L154 145L207 91Z" fill="#be451d" stroke="#be451d"></path><path d="M678 93L710 53L677 53Z" fill="#da6928" stroke="#da6928"></path><path d="M677 53L719 0L659 0Z" fill="#ee8432" stroke="#ee8432"></path><path d="M729 85L710 53L678 93Z" fill="#da6928" stroke="#da6928"></path><path d="M109 66L158 95L179 57Z" fill="#e77b2e" stroke="#e77b2e"></path><path d="M154 145L123 200L173 200Z" fill="#f48d35" stroke="#f48d35"></path><path d="M725 200L725 134L649 166Z" fill="#e1722b" stroke="#e1722b"></path><path d="M725 134L729 85L678 93Z" fill="#fa9639" stroke="#fa9639"></path><path d="M769 0L719 0L710 53Z" fill="#e1722b" stroke="#e1722b"></path><path d="M710 53L719 0L677 53Z" fill="#cc5722" stroke="#cc5722"></path><path d="M164 0L109 66L179 57Z" fill="#b73c1b" stroke="#b73c1b"></path><path d="M96 134L154 145L120 101Z" fill="#e1722b" stroke="#e1722b"></path><path d="M96 134L123 200L154 145Z" fill="#da6928" stroke="#da6928"></path><path d="M646 200L725 200L649 166Z" fill="#fa9639" stroke="#fa9639"></path><path d="M725 134L763 115L729 85Z" fill="#e1722b" stroke="#e1722b"></path><path d="M164 0L105 0L109 66Z" fill="#cc5722" stroke="#cc5722"></path><path d="M74 115L96 134L120 101Z" fill="#be451d" stroke="#be451d"></path><path d="M74 115L120 101L109 66Z" fill="#ee8432" stroke="#ee8432"></path><path d="M780 144L763 115L725 134Z" fill="#e77b2e" stroke="#e77b2e"></path><path d="M787 42L769 0L710 53Z" fill="#be451d" stroke="#be451d"></path><path d="M44 56L74 115L109 66Z" fill="#b73c1b" stroke="#b73c1b"></path><path d="M96 134L73 200L123 200Z" fill="#d36025" stroke="#d36025"></path><path d="M725 200L753 200L725 134Z" fill="#f48d35" stroke="#f48d35"></path><path d="M787 42L710 53L729 85Z" fill="#da6928" stroke="#da6928"></path><path d="M753 200L780 144L725 134Z" fill="#be451d" stroke="#be451d"></path><path d="M763 115L787 42L729 85Z" fill="#cc5722" stroke="#cc5722"></path><path d="M46 150L73 200L96 134Z" fill="#ee8432" stroke="#ee8432"></path><path d="M840 90L787 42L763 115Z" fill="#ee8432" stroke="#ee8432"></path><path d="M105 0L58 0L109 66Z" fill="#c54e20" stroke="#c54e20"></path><path d="M74 115L46 150L96 134Z" fill="#b73c1b" stroke="#b73c1b"></path><path d="M58 0L44 56L109 66Z" fill="#e1722b" stroke="#e1722b"></path><path d="M0 113L46 150L74 115Z" fill="#cc5722" stroke="#cc5722"></path><path d="M753 200L815 158L780 144Z" fill="#b73c1b" stroke="#b73c1b"></path><path d="M780 144L840 90L763 115Z" fill="#da6928" stroke="#da6928"></path><path d="M815 158L840 90L780 144Z" fill="#ee8432" stroke="#ee8432"></path><path d="M787 42L835 0L769 0Z" fill="#ee8432" stroke="#ee8432"></path><path d="M44 56L0 113L74 115Z" fill="#be451d" stroke="#be451d"></path><path d="M46 150L0 200L73 200Z" fill="#e1722b" stroke="#e1722b"></path><path d="M0 51L0 113L44 56Z" fill="#ee8432" stroke="#ee8432"></path><path d="M0 0L0 51L44 56Z" fill="#cc5722" stroke="#cc5722"></path><path d="M843 40L835 0L787 42Z" fill="#fa9639" stroke="#fa9639"></path><path d="M0 113L0 135L46 150Z" fill="#e77b2e" stroke="#e77b2e"></path><path d="M840 90L843 40L787 42Z" fill="#da6928" stroke="#da6928"></path><path d="M815 158L880 118L840 90Z" fill="#ee8432" stroke="#ee8432"></path><path d="M840 90L880 38L843 40Z" fill="#e77b2e" stroke="#e77b2e"></path><path d="M753 200L834 200L815 158Z" fill="#ee8432" stroke="#ee8432"></path><path d="M58 0L0 0L44 56Z" fill="#d36025" stroke="#d36025"></path><path d="M0 135L0 200L46 150Z" fill="#e77b2e" stroke="#e77b2e"></path><path d="M880 157L880 118L815 158Z" fill="#ee8432" stroke="#ee8432"></path><path d="M843 40L880 0L835 0Z" fill="#e1722b" stroke="#e1722b"></path><path d="M880 118L880 38L840 90Z" fill="#c54e20" stroke="#c54e20"></path><path d="M834 200L880 157L815 158Z" fill="#fa9639" stroke="#fa9639"></path><path d="M880 38L880 0L843 40Z" fill="#e77b2e" stroke="#e77b2e"></path><path d="M834 200L880 200L880 157Z" fill="#e77b2e" stroke="#e77b2e"></path></g></svg>